<svg xmlns="http://www.w3.org/2000/svg" width="505.25" height="505.25" viewBox="-52 0 505.25 505.25" fill="none">
  <g>
    <path
      d="M453.264 252.979C453.264 392.502 340.156 505.635 200.632 505.635C61.1087 505.635 -52 392.502 -52 252.979C-52 113.455 54.6085 6.94428 188.532 0.614479C192.549 0.444061 196.591 0.34668 200.632 0.34668C204.673 0.34668 208.715 0.419716 212.732 0.614479C346.631 6.94428 453.264 117.497 453.264 252.979Z"
      fill="url(#paint1_linear_17_9527)"
    ></path>
    <path
      d="M200.632 501.716C338.006 501.716 449.369 390.352 449.369 252.979C449.369 115.605 338.006 4.24194 200.632 4.24194C63.2588 4.24194 -48.1045 115.605 -48.1045 252.979C-48.1045 390.352 63.2588 501.716 200.632 501.716Z"
      fill="url(#paint2_linear_17_9527)"
    ></path>
    <path
      d="M415.132 252.991C415.132 371.456 319.097 467.491 200.632 467.491C82.1668 467.491 -13.8682 371.456 -13.8682 252.991C-13.8682 134.526 82.1668 38.4909 200.632 38.4909C319.097 38.4909 415.132 134.526 415.132 252.991ZM29.0318 252.991C29.0318 347.763 105.86 424.591 200.632 424.591C295.404 424.591 372.232 347.763 372.232 252.991C372.232 158.219 295.404 81.3909 200.632 81.3909C105.86 81.3909 29.0318 158.219 29.0318 252.991Z"
      fill="url(#paint3_linear_17_9527)"
    ></path>
  </g>
  <defs>
    <linearGradient
      id="paint1_linear_17_9527"
      x1="372.438"
      y1="81.1734"
      x2="9.49651"
      y2="444.114"
      gradientUnits="userSpaceOnUse"
    >
      <stop stop-color="#FEDC31"></stop>
      <stop offset="0.09" stop-color="#FDC347"></stop>
      <stop offset="0.27" stop-color="#FC8682"></stop>
      <stop offset="0.52" stop-color="#FA2CD7"></stop>
      <stop offset="0.76" stop-color="#987CDB"></stop>
      <stop offset="1" stop-color="#33D0E0"></stop>
    </linearGradient>
    <linearGradient
      id="paint2_linear_17_9527"
      x1="369.784"
      y1="83.827"
      x2="12.4425"
      y2="441.169"
      gradientUnits="userSpaceOnUse"
    >
      <stop stop-color="#000604"></stop>
      <stop offset="0.4" stop-color="#303030"></stop>
      <stop offset="1" stop-color="#000604"></stop>
    </linearGradient>
    <linearGradient
      id="paint3_linear_17_9527"
      x1="58.2812"
      y1="110.64"
      x2="338.989"
      y2="391.348"
      gradientUnits="userSpaceOnUse"
    >
      <stop stop-color="#FEDC31"></stop>
      <stop offset="0.09" stop-color="#FDC347"></stop>
      <stop offset="0.27" stop-color="#FC8682"></stop>
      <stop offset="0.52" stop-color="#FA2CD7"></stop>
      <stop offset="0.76" stop-color="#987CDB"></stop>
      <stop offset="1" stop-color="#33D0E0"></stop>
    </linearGradient>
  </defs>
</svg>