<svg xmlns="http://www.w3.org/2000/svg" width="360" height="360" viewBox="12 29 360 360" fill="none">
  <g clip-path="url(#clip0_632_3460)">
    <g clip-path="url(#clip1_632_3460)">
      <path
        d="M365.373 209.885C365.373 240.404 357.339 270.385 342.08 296.815C326.82 323.245 304.872 345.193 278.442 360.453L191.512 209.885L365.373 209.885Z"
        fill="#22CCEE"></path>
      <path
        d="M278.443 59.3157C304.873 74.5752 326.821 96.523 342.081 122.953C357.34 149.384 365.374 179.365 365.374 209.884L191.512 209.884L278.443 59.3157Z"
        fill="#FEC84B"></path>
      <path
        d="M104.584 59.3158C131.014 44.0563 160.996 36.0228 191.515 36.0228C222.034 36.0228 252.015 44.0562 278.445 59.3158L191.515 209.884L104.584 59.3158Z"
        fill="#F79009"></path>
      <path
        d="M17.6506 209.884C17.6506 179.365 25.6841 149.384 40.9436 122.953C56.2031 96.5231 78.151 74.5752 104.581 59.3157L191.512 209.884L17.6506 209.884Z"
        fill="#EC407A"></path>
      <path
        d="M104.582 360.453C78.1521 345.193 56.2042 323.246 40.9447 296.815C25.6852 270.385 17.6517 240.404 17.6517 209.885L191.513 209.885L104.582 360.453Z"
        fill="#2ED3B7"></path>
      <path
        d="M278.441 360.452C252.011 375.711 222.03 383.745 191.511 383.745C160.992 383.745 131.01 375.711 104.58 360.452L191.511 209.884L278.441 360.452Z"
        fill="#9C27B0"></path>
      <g style="mix-blend-mode:overlay">
        <path
          d="M191.857 113.846L219.228 162.476L275.028 161.865L246.598 209.883L275.028 257.902L219.228 257.291L191.857 305.921L164.486 257.291L108.686 257.902L137.116 209.883L108.686 161.865L164.486 162.476L191.857 113.846Z"
          fill="#344054"></path>
      </g>
      <g style="mix-blend-mode:overlay">
        <path
          d="M191.856 56.7207L235.507 134.277L324.499 133.302L279.159 209.884L324.499 286.466L235.507 285.491L191.856 363.048L148.204 285.491L59.2124 286.466L104.553 209.884L59.2124 133.302L148.204 134.277L191.856 56.7207Z"
          fill="#344054"></path>
      </g>
    </g>
  </g>
  <defs>
    <clipPath id="clip0_632_3460">
      <rect width="380" height="414.244" rx="8.83721" fill="white"></rect>
    </clipPath>
    <clipPath id="clip1_632_3460">
      <rect width="419.215" height="496.102" fill="white"></rect>
    </clipPath>
  </defs>
</svg>